<svg xmlns="http://www.w3.org/2000/svg" xmlns:xlink="http://www.w3.org/1999/xlink" width="439.234" height="545.184" viewBox="0 0 439.234 545.184">
  <defs>
    <clipPath id="clip-path">
      <path id="Path_19" data-name="Path 19" d="M219.61,322.19C312.89,294.8,344.7,156.83,290.65,14,338.92-7.14,396.11-5.09,451.83,25.22,416.86,161.84,312.89,294.8,219.61,322.19Z" transform="translate(-182.19 -16.98)" fill="none"/>
    </clipPath>
    <clipPath id="clip-path-2">
      <path id="Path_56" data-name="Path 56" d="M445.74,543.09C414.13,393.7,312.89,294.8,219.61,322.19c93.28-27.39,197.25-160.35,232.22-297C567.93,88.38,633.7,250.33,598.73,387,576,475.62,516.48,531.82,445.74,543.09Z" transform="translate(-182.19 -16.98)" fill="none"/>
    </clipPath>
    <clipPath id="clip-path-3">
      <path id="Path_89" data-name="Path 89" d="M288.59,326.13a63.411,63.411,0,0,0-14.35-5.52c-2.66-.71-6.26-1.4-9-1.85-2.16-.36-5.07-.63-7.25-.82a81,81,0,0,0-14.1-.07c-3.26.36-7.64.67-10.87,1.24-4.07.73-9.45,2-13.43,3.08,93.28-27.39,194.52,71.51,226.13,220.9-38.26,6.09-79.8-1-120.55-23.13-116.1-63.15-181.87-225.1-146.9-361.72C196.48,87.18,238.33,37,290.65,14c54.05,142.8,22.24,280.77-71,308.16a190.892,190.892,0,0,0,20-8A94.49,94.49,0,0,0,254.16,305c3.25-2.56,7.4-6.21,10.37-9.08a77.6,77.6,0,0,0,5.44-6.15c.95-1.15,2.11-2.77,2.94-4s1.88-3,2.65-4.33a33.658,33.658,0,0,0,2.18-4.85c-.15.75-.33,1.76-.42,2.53s-.19,2-.22,2.92a55.212,55.212,0,0,0,.2,7.32,79.809,79.809,0,0,0,2.46,13.54c.41,1.39.91,3.26,1.42,4.61,2.09,5.67,2.36,6.4,3.45,8.53a55.208,55.208,0,0,0,3.76,6.86,39.252,39.252,0,0,0,4.58,6c-1-.73-1.75-1.25-1.76-1.25C290.44,327.19,289.4,326.55,288.59,326.13Z" transform="translate(-182.19 -16.98)" fill="none"/>
    </clipPath>
    <clipPath id="clip-path-4">
      <path id="Path_110" data-name="Path 110" d="M219.61,322.19c5.19-1.71,12.16-4,17-6.53,2.78-1.43,6.52-3.31,9.17-5,3.35-2.1,7.68-5.11,10.79-7.55a115.011,115.011,0,0,0,9.83-9.16c1.52-1.56,3.28-3.88,4.64-5.58.86-1.09,5.06-6.85,6.68-11.78a34.535,34.535,0,0,0-.65,5.6,57.634,57.634,0,0,0,.21,7.24,64.74,64.74,0,0,0,1.34,8.83c.26,1.41.73,3.27,1.13,4.65s.9,3.25,1.41,4.61c2.1,5.68,2.37,6.41,3.47,8.57a56.557,56.557,0,0,0,3.8,6.91c.55.84,1.28,2,1.89,2.76a29.169,29.169,0,0,0,2.63,3.15c-1.1-.84-2.06-1.45-2.17-1.52-.81-.51-1.9-1.17-2.76-1.59-1.58-.76-3.69-1.77-5.31-2.43s-3.52-1.27-5-1.79A80.821,80.821,0,0,0,269,319.4a68.769,68.769,0,0,0-7-1.08c-2.93-.27-6.85-.6-9.79-.64-3.2,0-7.48.08-10.67.37C234.84,318.66,226.1,320.63,219.61,322.19Z" transform="translate(-182.19 -16.98)" fill="none"/>
    </clipPath>
  </defs>
  <g id="Layer_2" data-name="Layer 2" transform="translate(13.307 16.986)">
    <g id="Layer_1" data-name="Layer 1">
      <g id="Group_10" data-name="Group 10">
        <g id="Group_3" data-name="Group 3">
          <g id="Group_2" data-name="Group 2" clip-path="url(#clip-path)">
            <path id="Path_3" data-name="Path 3" d="M325,68.18a129.8,129.8,0,0,0-16.5,5.93Q307,67,305.14,59.81q4.35-1.91,8.83-3.51-1.64-7.68-3.57-15.41-4.78,1.71-9.44,3.75l-4.57-14.5c6-2.28,13.92-5.34,20-7.21A426.81,426.81,0,0,1,325,68.18" transform="translate(-182.19 -16.98)" fill="#ec6666"/>
            <path id="Path_4" data-name="Path 4" d="M339.27,95.29A110.73,110.73,0,0,0,313.65,103q-1-6.94-2.2-14c14.19-5.41,15.68-6,27.57-8.3q.25,7.33.25,14.58" transform="translate(-182.19 -16.98)" fill="#ec6666"/>
            <path id="Path_5" data-name="Path 5" d="M339.27,95.29l.53-.1-.53.1" transform="translate(-182.19 -16.98)" fill="#ec6666"/>
            <path id="Path_6" data-name="Path 6" d="M417.5,108.55A132.489,132.489,0,0,0,368,94a454.109,454.109,0,0,0,4.44-45.33,155.879,155.879,0,0,1,36.76,7.62q1.62-7.68,3-15.41a159.85,159.85,0,0,0-67.4-7.85A434.625,434.625,0,0,1,347,87c-.05,2.44-.13,4.88-.22,7.3q-3.5.38-6.93.94l-.53.1q0-7.25-.25-14.58a431.837,431.837,0,0,0-6.6-61.42c29.66-5.14,61.47-1.82,93.28,11-2.84,14.78-6.43,29.47-10.68,43.94a152,152,0,0,0-34.55-9.48q-1,7.83-2.17,15.56A145.69,145.69,0,0,1,423.23,95q-2.76,6.83-5.73,13.57" transform="translate(-182.19 -16.98)" fill="#ec6666"/>
            <path id="Path_7" data-name="Path 7" d="M324.57,173.36a66.311,66.311,0,0,0-8.73,3.14q.56-6.24.84-12.63c1.59-.69,3.2-1.34,4.83-1.92q.54-6.82.81-13.81c-1.8.65-3.58,1.35-5.34,2.12L316.72,137a90.666,90.666,0,0,1,11.64-4.18,336.371,336.371,0,0,1-3.79,40.5" transform="translate(-182.19 -16.98)" fill="#ec6666"/>
            <path id="Path_8" data-name="Path 8" d="M325,197.58a53.911,53.911,0,0,0-12.51,3.77q1.1-5.88,1.92-11.93a61.2,61.2,0,0,1,14-4.22q-1.61,6.28-3.44,12.38" transform="translate(-182.19 -16.98)" fill="#ec6666"/>
            <path id="Path_9" data-name="Path 9" d="M325,197.58l.27-.05-.27.05" transform="translate(-182.19 -16.98)" fill="#ec6666"/>
            <path id="Path_10" data-name="Path 10" d="M363.19,204.06A64.9,64.9,0,0,0,339,197a382.5,382.5,0,0,0,14.49-39.17A85.7,85.7,0,0,1,373.58,162q3.21-6.81,6.23-13.81a90.29,90.29,0,0,0-38.08-4.43,350,350,0,0,1-11.12,47.18c-.64,2.08-1.31,4.13-2,6.17-1.14.12-2.27.28-3.38.46l-.27.05q1.83-6.09,3.44-12.38a348.127,348.127,0,0,0,9.25-54.46c17.23-3,35.72-1.06,54.21,6.39-6.05,13.57-12.63,26.76-19.68,39.43a80.489,80.489,0,0,0-18.28-5q-2.66,6.84-5.51,13.46a74.111,74.111,0,0,1,22.87,7.46q-4,5.89-8.08,11.6" transform="translate(-182.19 -16.98)" fill="#ec6666"/>
            <path id="Path_11" data-name="Path 11" d="M298.84,253.05a25.36,25.36,0,0,0-3.39,1.22q2.34-4.78,4.43-9.8c.66-.3,1.33-.56,2-.81q2.37-5.34,4.48-11c-.8.29-1.59.6-2.37.94l3.4-10.75c1.63-.62,3.8-1.46,5.47-2a217.853,217.853,0,0,1-14,32.13" transform="translate(-182.19 -16.98)" fill="#ec6666"/>
            <path id="Path_12" data-name="Path 12" d="M288.89,271.55a17.222,17.222,0,0,0-4.05,1.22q2.84-4.25,5.43-8.74a21.221,21.221,0,0,1,5-1.51q-3.09,4.65-6.38,9" transform="translate(-182.19 -16.98)" fill="#ec6666"/>
            <path id="Path_13" data-name="Path 13" d="M288.89,271.55h0" transform="translate(-182.19 -16.98)" fill="#ec6666"/>
            <path id="Path_14" data-name="Path 14" d="M301.25,273.64a21.091,21.091,0,0,0-7.83-2.29,255.513,255.513,0,0,0,21.81-29.42,35.44,35.44,0,0,1,8.39,1.74q4.23-5.35,8.33-11a40,40,0,0,0-16.94-2,229.614,229.614,0,0,1-21.57,36.19c-1.11,1.52-2.24,3-3.38,4.46a6.8,6.8,0,0,0-1.09.15h-.08q3.28-4.38,6.38-9a229,229,0,0,0,22-42.59,46.48,46.48,0,0,1,25.45,3,384.669,384.669,0,0,1-25.33,31.36,31.24,31.24,0,0,0-7.1-1.95q-3.86,5.21-7.86,10.11a26.411,26.411,0,0,1,8.16,2.66c-3.08,2.93-6.19,5.78-9.3,8.53" transform="translate(-182.19 -16.98)" fill="#ec6666"/>
            <path id="Path_15" data-name="Path 15" d="M250,308.2a2.462,2.462,0,0,0-.38.14q4-2.64,7.82-5.62l.31-.13q4.07-3.15,7.89-6.68l-.47.19,6.88-6.94a9.757,9.757,0,0,1,1.31-.48A129.623,129.623,0,0,1,250,308.2" transform="translate(-182.19 -16.98)" fill="#ec6666"/>
            <path id="Path_16" data-name="Path 16" d="M232.26,317.66a.2.2,0,0,0-.11,0q4.47-1.9,8.72-4.18a1.39,1.39,0,0,1,.33-.1q-4.39,2.31-8.94,4.25" transform="translate(-182.19 -16.98)" fill="#ec6666"/>
            <path id="Path_17" data-name="Path 17" d="M50.07,300.68h0" fill="#ec6666"/>
            <path id="Path_18" data-name="Path 18" d="M232.59,317.71l-.21-.06a142.169,142.169,0,0,0,27.39-15.32,5.11,5.11,0,0,1,1.3.27q4.85-3.17,9.64-6.69a8,8,0,0,0-3.38-.39,134.889,134.889,0,0,1-30.5,20.1c-1.5.71-3,1.39-4.54,2h0q4.55-1.94,8.94-4.25a135,135,0,0,0,33.17-25,11.13,11.13,0,0,1,6.11.72A218.567,218.567,0,0,1,252,308.34a3.469,3.469,0,0,0-.79-.22q-4.72,2.85-9.55,5.28a2,2,0,0,1,.53.18q-4.81,2.24-9.61,4.13" transform="translate(-182.19 -16.98)" fill="#ec6666"/>
          </g>
        </g>
        <g id="Group_5" data-name="Group 5">
          <g id="Group_4" data-name="Group 4" clip-path="url(#clip-path-2)">
            <path id="Path_20" data-name="Path 20" d="M464.4,144c-11.67-11.47-22.7-22.3-43.24-33.58,6.3-13.57,12-27.42,17.12-41.42a208.141,208.141,0,0,1,32.25,21.79q3.72-6.48,7.24-13a220.822,220.822,0,0,0-34.48-23.3q2.28-6.93,4.32-13.89A239.611,239.611,0,0,1,494,73.71C487,85.87,479.42,98,471.27,110a199.3,199.3,0,0,0-31.8-23.67q-3.08,7.05-6.36,14c15.76,10.28,22.95,15,40.59,32.77q-4.57,5.44-9.3,10.85" transform="translate(-182.19 -16.98)" fill="#ec6666"/>
            <path id="Path_21" data-name="Path 21" d="M512.86,225.83a232.909,232.909,0,0,0-26.58-54.26c11.3-8.87,22.22-17.84,32.64-26.82a281,281,0,0,1,21.63,38.84q6.13-3.32,12.09-6.62a292.681,292.681,0,0,0-43.91-68.91c-10.32,12.65-21.46,25.26-33.21,37.67q-2.44,2.58-4.93,5.15c-2-2.35-4.1-4.65-6.21-6.88h0q4.73-5.4,9.3-10.85c12.52-14.91,24.18-30.08,34.69-45.29,25.48,26.91,46.12,59.63,60.79,95.31-11.49,5.57-23.53,11.25-36,17a269.4,269.4,0,0,0-18.79-37.29q-5.76,4.3-11.68,8.59a253,253,0,0,1,23.14,49.81l-13,4.6" transform="translate(-182.19 -16.98)" fill="#ec6666"/>
            <path id="Path_22" data-name="Path 22" d="M512.86,225.83l.07.21-.07-.21" transform="translate(-182.19 -16.98)" fill="#ec6666"/>
            <path id="Path_23" data-name="Path 23" d="M524.37,322.15a223.5,223.5,0,0,0-2.45-61c14-2,27.8-3.82,41.13-5.46a283.166,283.166,0,0,1,4.31,45q7,.69,13.94,1.48a309.5,309.5,0,0,0-12.74-82.67l-46.14,13.59-6.64,2q-1.335-4.5-2.85-9l-.07-.21,13-4.6c17.65-6.27,34.68-12.4,50.72-18.28a328.12,328.12,0,0,1,17.55,114.39c-13-2.52-26.5-4.75-40.37-6.68a260.008,260.008,0,0,0-2.24-42.17q-7.1.51-14.31,1.1a238.12,238.12,0,0,1,1,55.31q-6.88-1.42-13.88-2.75" transform="translate(-182.19 -16.98)" fill="#ec6666"/>
            <path id="Path_24" data-name="Path 24" d="M524.37,322.15a2.315,2.315,0,0,1-.07.69,2.315,2.315,0,0,1,.07-.69" transform="translate(-182.19 -16.98)" fill="#ec6666"/>
            <path id="Path_25" data-name="Path 25" d="M493.47,407.57a159.78,159.78,0,0,0,24.06-49.9c13.7,5.42,27.11,11.28,40.09,17.55a209.849,209.849,0,0,1-15.68,39.12q6.16,4.59,12.18,9.33A227.662,227.662,0,0,0,573,373.93a261.58,261.58,0,0,0,5.32-26.47c-15.51-5.17-31.68-9.86-48.26-14-2.3-.59-4.6-1.16-6.92-1.72q.66-4.41,1.12-8.86a2.315,2.315,0,0,1,.07-.69q7,1.32,13.88,2.75c18.87,3.92,37.17,8.44,54.53,13.53A280.681,280.681,0,0,1,585.46,380a236.482,236.482,0,0,1-26,63.36c-10.9-10.12-22.36-19.77-34.25-28.9a187.66,187.66,0,0,0,16.25-34.95q-6.74-3.48-13.6-6.79A168,168,0,0,1,505,416.85l-11.53-9.28" transform="translate(-182.19 -16.98)" fill="#ec6666"/>
            <path id="Path_26" data-name="Path 26" d="M493.47,407.57l-.35.48.35-.48" transform="translate(-182.19 -16.98)" fill="#ec6666"/>
            <path id="Path_27" data-name="Path 27" d="M431.5,452.57a114.48,114.48,0,0,0,41.63-22.93c10.29,10.95,20.16,22.54,29.5,34.71A145.332,145.332,0,0,1,473.09,484q3.82,7,7.42,14.14a160.67,160.67,0,0,0,51.88-41.72,478.287,478.287,0,0,0-38.32-37.59c-1.86-1.62-3.73-3.24-5.61-4.83,1.6-1.93,3.15-3.91,4.66-6l.35-.48q5.82,4.55,11.53,9.28a477.544,477.544,0,0,1,44.32,41.74c-19.46,26.6-44.1,46.21-71.75,57.78a432.749,432.749,0,0,0-19.81-41.78,133.17,133.17,0,0,0,28.55-16.42q-4.76-6.29-9.68-12.37a121.88,121.88,0,0,1-38.33,19.48q-3.32-6.46-6.8-12.71" transform="translate(-182.19 -16.98)" fill="#ec6666"/>
            <path id="Path_28" data-name="Path 28" d="M431.5,452.57l-.52.15.52-.15" transform="translate(-182.19 -16.98)" fill="#ec6666"/>
            <path id="Path_29" data-name="Path 29" d="M437.92,511.84q4.79-.76,9.49-1.84a408.747,408.747,0,0,0-20-49.15c-1-2.15-2.1-4.27-3.17-6.38,2.26-.51,4.5-1.1,6.71-1.75l.52-.15q3.5,6.24,6.8,12.71a422.753,422.753,0,0,1,23.85,56.61,157.615,157.615,0,0,1-20.25,4.63q-1.87-7.44-4-14.68" transform="translate(-182.19 -16.98)" fill="#ec6666"/>
            <path id="Path_30" data-name="Path 30" d="M386.15,221.33c-5.71-5.61-11.1-10.9-21.14-16.41,8.55-11.5,16.76-23.56,24.54-36.06a113.4,113.4,0,0,1,17.65,11.92q4.92-5.85,9.72-11.84a124.772,124.772,0,0,0-19.48-13.17q3.68-6.28,7.19-12.7a138.907,138.907,0,0,1,26.95,19.27c-9.52,11.36-19.43,22.43-29.6,33.11a105.741,105.741,0,0,0-16.83-12.52q-4.35,6.19-8.83,12.23c8,5.23,11.7,7.62,20.68,16.68q-5.4,4.8-10.85,9.49" transform="translate(-182.19 -16.98)" fill="#ec6666"/>
            <path id="Path_31" data-name="Path 31" d="M409.81,261.33a113.7,113.7,0,0,0-13-26.51c12.38-7.9,24.71-16.09,36.85-24.5a155.832,155.832,0,0,1,11.84,21.26q6.89-3.27,13.71-6.56a165.251,165.251,0,0,0-24.81-39c-12.88,11.79-26.15,23.22-39.64,34.13-1.87,1.51-3.74,3-5.62,4.51q-1.49-1.72-3-3.36h0q5.44-4.68,10.85-9.49c14.76-13.15,29.17-27,43-41.29A180.36,180.36,0,0,1,475.29,226c-13.36,5.78-26.92,11.53-40.54,17.2a143,143,0,0,0-9.94-19.74q-6.51,4-13.05,7.93a128.644,128.644,0,0,1,11.78,25.35l-13.73,4.64" transform="translate(-182.19 -16.98)" fill="#ec6666"/>
            <path id="Path_32" data-name="Path 32" d="M409.81,261.33v0" transform="translate(-182.19 -16.98)" fill="#ec6666"/>
            <path id="Path_33" data-name="Path 33" d="M415.43,308.39a109.459,109.459,0,0,0-1.19-29.79c14.48-2.62,29.07-5.14,43.59-7.55a155.346,155.346,0,0,1,2.36,24.61q7.63,0,15.24.12a175.157,175.157,0,0,0-7.19-46.73l-50.05,14.74-6.95,2c-.44-1.47-.9-2.94-1.4-4.4v-.1l13.73-4.64c18.79-6.37,37.59-12.81,56.06-19.23A190.69,190.69,0,0,1,489.8,304c-14.63-1.07-29.4-1.84-44.17-2.32a137.679,137.679,0,0,0-1.18-22.31l-15.13,2a121.1,121.1,0,0,1,.52,28.15q-7.21-.58-14.41-1.07" transform="translate(-182.19 -16.98)" fill="#ec6666"/>
            <path id="Path_34" data-name="Path 34" d="M415.43,308.39v0" transform="translate(-182.19 -16.98)" fill="#ec6666"/>
            <path id="Path_35" data-name="Path 35" d="M400.34,350.13a78,78,0,0,0,11.75-24.38c14.23,3.06,28.53,6.64,42.77,10.69a115.392,115.392,0,0,1-8.58,21.41q6.92,3.19,13.79,6.6a128.851,128.851,0,0,0,10.7-28.12,145.56,145.56,0,0,0,3-15c-17.19-3-34.52-5.56-51.75-7.53l-7.17-.78c.22-1.44.4-2.88.55-4.33v-.34q7.2.48,14.41,1.07c19.75,1.62,39.59,3.88,59.17,6.76a163.341,163.341,0,0,1-4.25,24.16,137.18,137.18,0,0,1-15.13,36.82c-12.86-7.49-25.95-14.38-39.12-20.64a99.081,99.081,0,0,0,8.6-18.49q-7.29-2.24-14.57-4.27a85.651,85.651,0,0,1-11.62,22.46q-6.29-3.18-12.58-6.13" transform="translate(-182.19 -16.98)" fill="#ec6666"/>
            <path id="Path_36" data-name="Path 36" d="M400.34,350.13l-.18.23.18-.23" transform="translate(-182.19 -16.98)" fill="#ec6666"/>
            <path id="Path_37" data-name="Path 37" d="M370.06,372.11a56,56,0,0,0,20.34-11.2,398.33,398.33,0,0,1,34.37,24.31A79.548,79.548,0,0,1,408.6,396q5,5.13,9.87,10.56A90.82,90.82,0,0,0,447.79,383,459.815,459.815,0,0,0,404,356.47c-2.05-1.09-4.1-2.15-6.15-3.2.78-.94,1.54-1.91,2.27-2.91l.18-.23q6.3,2.94,12.58,6.13a489.988,489.988,0,0,1,50.83,29.8c-11.31,15.46-25.63,26.86-41.7,33.58a356.278,356.278,0,0,0-27.22-31.25,70.681,70.681,0,0,0,15.11-8.69q-5.7-4.5-11.46-8.7A62.261,62.261,0,0,1,379,380.91q-4.41-4.55-8.91-8.8" transform="translate(-182.19 -16.98)" fill="#ec6666"/>
            <path id="Path_38" data-name="Path 38" d="M370.06,372.11l-.25.08.25-.08" transform="translate(-182.19 -16.98)" fill="#ec6666"/>
            <path id="Path_39" data-name="Path 39" d="M394.4,414.27c1.8-.28,3.59-.63,5.36-1a297.64,297.64,0,0,0-29-35.81q-2.12-2.24-4.26-4.39c1.1-.25,2.19-.54,3.28-.85l.25-.08q4.5,4.26,8.91,8.8a325.061,325.061,0,0,1,34.11,41.94,88.788,88.788,0,0,1-11.77,2.69q-3.37-5.76-6.91-11.27" transform="translate(-182.19 -16.98)" fill="#ec6666"/>
            <path id="Path_40" data-name="Path 40" d="M308.73,279.2a27.831,27.831,0,0,0-6.85-5.3,386.4,386.4,0,0,0,28.43-27.38,46.883,46.883,0,0,1,7.36,5q5.43-4.68,10.82-9.57a55.211,55.211,0,0,0-8.67-5.86q4.49-5.08,8.88-10.38a74.571,74.571,0,0,1,12.65,9.05c-10.7,9.51-21.52,18.5-32.38,26.87a41,41,0,0,0-6.54-4.87q-5,4.78-10,9.31a34.911,34.911,0,0,1,7.38,5.94q-5.52,3.7-11,7.21" transform="translate(-182.19 -16.98)" fill="#ec6666"/>
            <path id="Path_41" data-name="Path 41" d="M316.37,292.15a36.551,36.551,0,0,0-4.2-8.58c12-6.13,24.22-12.74,36.55-19.74a64.179,64.179,0,0,1,4.94,8.86q6.79-2.85,13.66-5.8a73.7,73.7,0,0,0-11-17.34c-13.7,9.81-27.42,19-41,27.32q-2.82,1.74-5.63,3.43c-.32-.37-.65-.73-1-1.09h0q5.5-3.51,11-7.21c15.14-10.13,30.4-21.33,45.52-33.39a84.649,84.649,0,0,1,16.58,26c-13.55,5.36-27,10.56-40.15,15.55a55.08,55.08,0,0,0-3.87-7.67Q331.4,275.79,325,279a45.711,45.711,0,0,1,4.21,9q-6.5,2.1-12.86,4.15" transform="translate(-182.19 -16.98)" fill="#ec6666"/>
            <path id="Path_42" data-name="Path 42" d="M316.37,292.15h0" transform="translate(-182.19 -16.98)" fill="#ec6666"/>
            <path id="Path_43" data-name="Path 43" d="M318.19,307.38a35.051,35.051,0,0,0-.38-9.64c13.28-2.9,27-5.76,41-8.57a64.345,64.345,0,0,1,1,10.27q7.34-.58,14.75-1.07a77.55,77.55,0,0,0-3.2-20.79l-48,14.13-6.45,1.9c-.14-.48-.29-.95-.45-1.42h0q6.38-2,12.86-4.15c17.73-5.76,36.07-11.79,54.67-18a89.871,89.871,0,0,1,4.79,31.22c-14.5.27-28.79.83-42.74,1.68a52.57,52.57,0,0,0-.46-8.68q-7.17,1.26-14.2,2.55a43.24,43.24,0,0,1,.18,10q-6.71.23-13.28.56" transform="translate(-182.19 -16.98)" fill="#ec6666"/>
            <path id="Path_44" data-name="Path 44" d="M318.19,307.38h0" transform="translate(-182.19 -16.98)" fill="#ec6666"/>
            <path id="Path_45" data-name="Path 45" d="M313.31,320.89a25.159,25.159,0,0,0,3.8-7.89c13.13.59,26.66,1.75,40.45,3.45a48.062,48.062,0,0,1-3.58,8.94q6.82,1.65,13.71,3.54a57.311,57.311,0,0,0,4.77-12.51,65.361,65.361,0,0,0,1.33-6.66c-16.81-.91-33.3-1.25-49.2-1-2.2,0-4.4.08-6.58.13.07-.46.12-.93.17-1.4v-.11q6.57-.33,13.28-.56c18.35-.61,37.42-.55,56.85.17a77.571,77.571,0,0,1-2,11.34,64.73,64.73,0,0,1-7.1,17.29c-13.18-4.51-26.28-8.31-39.15-11.35a38.6,38.6,0,0,0,3.34-7.19c-4.64-.6-9.26-1.13-13.83-1.58a30.581,30.581,0,0,1-4.14,8q-6.1-1.44-12.13-2.62" transform="translate(-182.19 -16.98)" fill="#ec6666"/>
            <path id="Path_46" data-name="Path 46" d="M313.31,320.89l-.06.08.06-.08" transform="translate(-182.19 -16.98)" fill="#ec6666"/>
            <path id="Path_47" data-name="Path 47" d="M303.51,328a18,18,0,0,0,6.58-3.63A266.876,266.876,0,0,1,345,336.81a33.379,33.379,0,0,1-6.74,4.49q5.48,3,10.92,6.36a40.31,40.31,0,0,0,13.05-10.49,331,331,0,0,0-43.76-13.9q-3-.72-6-1.36c.25-.31.49-.62.73-.94l.06-.08q6,1.17,12.13,2.62a370,370,0,0,1,51,16.27,46.781,46.781,0,0,1-19.58,15.77,237.328,237.328,0,0,0-30.69-18.91,27.182,27.182,0,0,0,5.88-3.37q-5.9-2.43-11.78-4.5a22.35,22.35,0,0,1-7,3.54q-4.9-2.32-9.82-4.3" transform="translate(-182.19 -16.98)" fill="#ec6666"/>
            <path id="Path_48" data-name="Path 48" d="M303.51,328h0" transform="translate(-182.19 -16.98)" fill="#ec6666"/>
            <path id="Path_49" data-name="Path 49" d="M338.47,351.1c.8-.12,1.6-.28,2.39-.46a185.841,185.841,0,0,0-33.71-20.24c-1.59-.72-3.19-1.42-4.78-2.09.35-.08.71-.18,1.06-.28h.08q4.92,2,9.82,4.3a208.279,208.279,0,0,1,39.34,24.74c-1.65.41-3.86,1-5.53,1.27q-4.29-3.78-8.67-7.22" transform="translate(-182.19 -16.98)" fill="#ec6666"/>
            <path id="Path_50" data-name="Path 50" d="M232.86,317.84l-.2-.14A198.866,198.866,0,0,0,262.15,303a7.86,7.86,0,0,1,1.14.77q5.35-2.86,10.77-6a11,11,0,0,0-1.74-1.17q4.83-3.24,9.64-6.76a15.791,15.791,0,0,1,3,2.18,343.659,343.659,0,0,1-31.66,17.15,4.169,4.169,0,0,0-.73-.54q-5.13,2.69-10.24,5a4.786,4.786,0,0,1,.5.39q-5.06,2.06-10,3.84" transform="translate(-182.19 -16.98)" fill="#ec6666"/>
            <path id="Path_51" data-name="Path 51" d="M233.05,318.2a.66.66,0,0,0-.11-.24c10.2-3.45,20.93-7.57,32.06-12.27a10.341,10.341,0,0,1,.77,1.38q5.93-2.11,12.05-4.35a14.84,14.84,0,0,0-2.21-3.47,380.527,380.527,0,0,1-37.74,16.8q-2.52.94-5,1.83h0q4.95-1.79,10-3.84A375.329,375.329,0,0,0,286,292.91a20.27,20.27,0,0,1,4,6.25c-12.22,4.31-24,8.34-35.18,12a5.312,5.312,0,0,0-.43-.86q-5.65,2.18-11.12,4.13a2.881,2.881,0,0,1,.27.59l-10.42,3.15" transform="translate(-182.19 -16.98)" fill="#ec6666"/>
            <path id="Path_52" data-name="Path 52" d="M233.1,318.61a.75.75,0,0,0,0-.26c10.43-2.89,21.63-5.81,33.47-8.73a9.409,9.409,0,0,1,.15,1.59q6.17-1.14,12.55-2.2a16.249,16.249,0,0,0-.64-4.16l-40.39,11.87-5.17,1.52h0l10.42-3.15c14.55-4.42,30.32-9.33,47-14.6a21.78,21.78,0,0,1,1.15,7.5c-12.72,1.63-24.89,3.55-36.35,5.76a6.109,6.109,0,0,0-.05-1q-5.91,1.42-11.57,2.87a2.919,2.919,0,0,1,0,.66q-5.38,1.1-10.52,2.33" transform="translate(-182.19 -16.98)" fill="#ec6666"/>
            <path id="Path_53" data-name="Path 53" d="M233,319a.68.68,0,0,0,.1-.21,263.493,263.493,0,0,1,33.3-4.92,7.211,7.211,0,0,1-.56,1.39q6-.21,12.08-.12a11.58,11.58,0,0,0,.95-2.5c.11-.44.2-.88.27-1.33a373.8,373.8,0,0,0-40.82,6.21c-1.75.37-3.49.76-5.2,1.16h0q5.13-1.23,10.52-2.33a455.017,455.017,0,0,1,47.86-6.94,18,18,0,0,1-.48,2.72,15.521,15.521,0,0,1-1.71,4.15,237.116,237.116,0,0,0-34.72-.14,4.432,4.432,0,0,0,.37-.79q-5.83.66-11.45,1.57a2,2,0,0,1-.27.52Q238,318,233,319" transform="translate(-182.19 -16.98)" fill="#ec6666"/>
            <path id="Path_54" data-name="Path 54" d="M232.7,319.17a.519.519,0,0,0,.18-.1A148.111,148.111,0,0,1,264.42,317a4.749,4.749,0,0,1-1,.7c3.58.25,7.19.64,10.81,1.16a8.13,8.13,0,0,0,2.61-2.1,180.23,180.23,0,0,0-38.79,1.4c-1.7.25-3.39.54-5.07.85h0q5-1,10.25-1.6a204.107,204.107,0,0,1,45.41-.16,11.24,11.24,0,0,1-4.71,3.79A138.7,138.7,0,0,0,253,317.45a2.841,2.841,0,0,0,.65-.38q-5.46.12-10.8.65a1.471,1.471,0,0,1-.45.23c-3.26.27-6.5.67-9.73,1.22" transform="translate(-182.19 -16.98)" fill="#ec6666"/>
            <path id="Path_55" data-name="Path 55" d="M272.05,319.54l.48-.1a117.73,117.73,0,0,0-35-1c-1.61.2-3.22.44-4.83.71h0c3.23-.55,6.47-.95,9.73-1.22a126.16,126.16,0,0,1,40.48,3.41,9.712,9.712,0,0,1-1.32.3q-4.75-1.25-9.54-2.12" transform="translate(-182.19 -16.98)" fill="#ec6666"/>
          </g>
        </g>
        <g id="Group_7" data-name="Group 7">
          <g id="Group_6" data-name="Group 6" clip-path="url(#clip-path-3)">
            <path id="Path_57" data-name="Path 57" d="M354.89,448.82a123.9,123.9,0,0,0,48.66,8.36,375.868,375.868,0,0,1,12.92,41.27,147.68,147.68,0,0,1-36.32-3.25q.64,7.35,1,14.91a154.6,154.6,0,0,0,56.77,1.73q2.1,7.24,4,14.68a166.359,166.359,0,0,1-71.43-4.59,379.783,379.783,0,0,0-.93-42.76,141.92,141.92,0,0,0,34.24,5.34q-1.8-7.25-3.83-14.24a135.559,135.559,0,0,1-44.12-9q-.34-6.33-.94-12.43" transform="translate(-182.19 -16.98)" fill="#ec6666"/>
            <path id="Path_58" data-name="Path 58" d="M332.63,370.28a60.45,60.45,0,0,0,23.77,4.08,246.082,246.082,0,0,1,21.21,29.52,80.52,80.52,0,0,1-19.87-1.78q2.4,5.44,4.58,11.2a87.23,87.23,0,0,0,32.08,1q3.53,5.5,6.91,11.27a96.58,96.58,0,0,1-41.52-2.66,219.152,219.152,0,0,0-11.65-32.07,75.239,75.239,0,0,0,18.12,2.83q-3.31-5.25-6.81-10.19A69,69,0,0,1,337,378.86c-1.39-2.95-2.84-5.82-4.36-8.58" transform="translate(-182.19 -16.98)" fill="#ec6666"/>
            <path id="Path_59" data-name="Path 59" d="M291.39,327.41a19.65,19.65,0,0,0,7.7,1.33,146,146,0,0,1,26.24,15.85,33.7,33.7,0,0,1-8.3-.74q3.68,3.22,7.16,6.82a38.751,38.751,0,0,0,14.28.43q4.38,3.45,8.67,7.22c-7.26.78-11.57.79-19.49-1.26A119,119,0,0,0,308,337.59a29.1,29.1,0,0,0,7,1.1q-4.29-2.94-8.72-5.48a24.52,24.52,0,0,1-8-1.64q-3.39-2.25-7-4.16" transform="translate(-182.19 -16.98)" fill="#ec6666"/>
            <path id="Path_60" data-name="Path 60" d="M282.67,394.36c13.28,15.46,22.77,25.8,42.59,39.15a291.441,291.441,0,0,1-5.75,35.64,218.788,218.788,0,0,1-33-26.73Q283.9,448,281,453.69a227.933,227.933,0,0,0,50.46,37.64q6.78,3.69,13.58,6.75a333.186,333.186,0,0,0,2.14-46.59q-.09-3-.24-6c2.65,1.19,5.3,2.28,7.94,3.29v.07q.58,6.1.94,12.43a359.113,359.113,0,0,1-1.44,55.29,209.327,209.327,0,0,1-25.59-11.8,246.589,246.589,0,0,1-62.67-49.31q10.15-16.26,17.46-31a213.445,213.445,0,0,0,29.76,26.68q1.45-6,2.59-11.87C301.1,427.39,294.32,422,278.1,402.63q2.43-4.22,4.57-8.27" transform="translate(-182.19 -16.98)" fill="#ec6666"/>
            <path id="Path_61" data-name="Path 61" d="M240.11,308.54a237.22,237.22,0,0,0,22.7,56.33q-8.79,9-20.64,19.27a291.371,291.371,0,0,1-18.86-40.58q-4.73,2.16-9.83,4.44a304.371,304.371,0,0,0,38.92,72.55,330.773,330.773,0,0,0,22.16-29.83q1.24-1.94,2.42-3.81,2.77,3.78,5.7,7.43h0q-2.13,4-4.57,8.27A356,356,0,0,1,252.82,440c-23.42-29.19-41.77-63.6-53.89-100.37q16.24-5.79,29.32-10.61a273.741,273.741,0,0,0,16.14,38.77q3.92-3.06,7.48-6a257.731,257.731,0,0,1-19.59-51.59l7.83-1.71" transform="translate(-182.19 -16.98)" fill="#ec6666"/>
            <path id="Path_62" data-name="Path 62" d="M240.11,308.54l-.06-.21.06.21" transform="translate(-182.19 -16.98)" fill="#ec6666"/>
            <path id="Path_63" data-name="Path 63" d="M235.94,211.81a215,215,0,0,0-2.32,60.81Q221.47,271,206,269.89a273.715,273.715,0,0,1-.88-45.07q-5.34-1.9-11.08-3.77a301.08,301.08,0,0,0,6.53,83.27q18.91-2.94,33.35-4.72l3.91-.48c.67,3.09,1.41,6.16,2.2,9.21l.06.21-7.83,1.71q-16.77,3.72-39.35,9c-9.81-37.53-13.18-76.89-9-115.22q17.6,6.47,32,13.3a250.648,250.648,0,0,0-1,42.1q5,.82,9.58,1.73a228.56,228.56,0,0,1,3.33-55.07q4.24,2.84,8.14,5.68" transform="translate(-182.19 -16.98)" fill="#ec6666"/>
            <path id="Path_64" data-name="Path 64" d="M235.94,211.81a3.888,3.888,0,0,1,.13-.68,4.275,4.275,0,0,1-.13.68" transform="translate(-182.19 -16.98)" fill="#ec6666"/>
            <path id="Path_65" data-name="Path 65" d="M273.49,132.19a147.72,147.72,0,0,0-27.83,45.48,284.774,284.774,0,0,0-24.73-25.38,193.89,193.89,0,0,1,18.62-35.95q-4.17-5.62-8.71-11.26c-12.61,19-22.56,41.43-29.08,66.88-.37,1.43-.72,2.87-1.06,4.31A305.562,305.562,0,0,1,234,199.21c1.33,1.07,2.64,2.13,3.91,3.2q-1,4.34-1.86,8.72a4.275,4.275,0,0,1-.13.68q-3.9-2.84-8.14-5.68a340.6,340.6,0,0,0-40.73-22.92q1.67-9,3.92-17.8c8-31.4,21-58.47,37.61-80.56a372.538,372.538,0,0,1,24.08,34.32,173.166,173.166,0,0,0-18.88,31.92q4.3,4.72,8.24,9.43a155.529,155.529,0,0,1,26.17-40.1c1.87,4,3.62,7.87,5.28,11.77" transform="translate(-182.19 -16.98)" fill="#ec6666"/>
            <path id="Path_66" data-name="Path 66" d="M273.49,132.19l.39-.43-.39.43" transform="translate(-182.19 -16.98)" fill="#ec6666"/>
            <path id="Path_67" data-name="Path 67" d="M308.51,74.11A132.3,132.3,0,0,0,295,81q2.11,7.23,3.89,14.4c3.75-2,8.71-4.67,12.57-6.4q1.24,7,2.2,14a113.72,113.72,0,0,0-18.08,10,369.586,369.586,0,0,0-12.83-40.81,141.322,141.322,0,0,1,22.4-12.37Q307,67,308.51,74.11" transform="translate(-182.19 -16.98)" fill="#ec6666"/>
            <path id="Path_68" data-name="Path 68" d="M301,44.64a155.5,155.5,0,0,0-45.89,31.11,362,362,0,0,1,21.57,44.66c.81,2,1.59,4.06,2.35,6.09-1.74,1.69-3.45,3.44-5.11,5.26l-.39.43c-1.66-3.9-3.41-7.82-5.28-11.77A369.818,369.818,0,0,0,239.89,71.2c15.33-15.4,27.45-27.57,56.5-41.06L301,44.64" transform="translate(-182.19 -16.98)" fill="#ec6666"/>
            <path id="Path_69" data-name="Path 69" d="M297.33,343.67c6.49,7.55,11.12,12.6,20.8,19.12a118.29,118.29,0,0,1,6.41,25,119.791,119.791,0,0,1-18.08-14.62q-.22,4-.76,8.19a128.83,128.83,0,0,0,28.52,21.27q3.82,2.08,7.67,3.81a164.283,164.283,0,0,0-11.17-33.74c-.64-1.39-1.31-2.77-2-4.12,1.3.58,2.59,1.12,3.88,1.61h0c1.52,2.76,3,5.63,4.36,8.58a190.649,190.649,0,0,1,13.44,40.87,121.889,121.889,0,0,1-14.88-6.86,143.6,143.6,0,0,1-36.42-28.65,106.731,106.731,0,0,0,3.52-22.4,111.56,111.56,0,0,0,15.75,14.11c-.48-2.86-1.06-5.62-1.73-8.3-7.55-6-11-8.75-19.25-18.61a47.2,47.2,0,0,0-.09-5.35" transform="translate(-182.19 -16.98)" fill="#ec6666"/>
            <path id="Path_70" data-name="Path 70" d="M276.54,301.74a115.63,115.63,0,0,0,11.09,27.52,40.48,40.48,0,0,1-5.4,12.06,158.941,158.941,0,0,1-10.32-22.2c-1.33.8-2.78,1.66-4.36,2.56a171.86,171.86,0,0,0,22,41c3-7.58,4.65-14.35,5-20.25,0-.82.06-1.62.05-2.41q1.35,1.86,2.78,3.64h0a47.2,47.2,0,0,1,.09,5.35c-.31,7.61-2.31,16.39-6,26.23a187.349,187.349,0,0,1-31.31-58.34q8.26-3.3,13.29-5.55a145.314,145.314,0,0,0,8.54,20.51,40.828,40.828,0,0,0,2.16-3.61,130.221,130.221,0,0,1-10-26.25c.93-.12,1.75-.21,2.44-.27" transform="translate(-182.19 -16.98)" fill="#ec6666"/>
            <path id="Path_71" data-name="Path 71" d="M276.54,301.74v0" transform="translate(-182.19 -16.98)" fill="#ec6666"/>
            <path id="Path_72" data-name="Path 72" d="M274.5,254.5a105.12,105.12,0,0,0-1.13,29.7,38.521,38.521,0,0,0-10.92-5.39,149.393,149.393,0,0,1-.48-24.66c-1.67-1.4-3.46-2.81-5.4-4.21a170.17,170.17,0,0,0,3.7,47.06,87.291,87.291,0,0,1,14,0,6.989,6.989,0,0,1,1.19.16q.49,2.26,1.08,4.5v.1c-.69.06-1.51.15-2.44.27-3.83.49-9.68,1.52-17.51,3.08a185.54,185.54,0,0,1-5.2-67,96.449,96.449,0,0,1,15.47,14.16,131.382,131.382,0,0,0-.55,22.27,42,42,0,0,1,3.81,2.49,116.316,116.316,0,0,1,1.7-28,60.005,60.005,0,0,1,2.68,5.48" transform="translate(-182.19 -16.98)" fill="#ec6666"/>
            <path id="Path_73" data-name="Path 73" d="M274.5,254.5a3.4,3.4,0,0,1,.07-.34,3.394,3.394,0,0,0-.07.34" transform="translate(-182.19 -16.98)" fill="#ec6666"/>
            <path id="Path_74" data-name="Path 74" d="M292.84,215.6a72.35,72.35,0,0,0-13.59,22.22,109.84,109.84,0,0,0-8.64-23.35,105.642,105.642,0,0,1,10.18-19.67q-1.53-5.15-3.43-10.39a123.52,123.52,0,0,0-16.43,37.8q-.31,1.22-.6,2.43a93.49,93.49,0,0,1,13.95,22.26c.43,1,.83,2,1.19,3q-.5,2.11-.9,4.26a3.4,3.4,0,0,0-.07.34,60.008,60.008,0,0,0-2.68-5.48c-4.18-7.53-10.41-15.25-18.64-23q1-5.22,2.28-10.35c4.67-18.25,12.21-34,21.86-46.82a201.636,201.636,0,0,1,9,31.5,91.291,91.291,0,0,0-10,16.88q1.56,4.35,2.75,8.59a79.5,79.5,0,0,1,13.32-20.4q.39,5.16.46,10.19" transform="translate(-182.19 -16.98)" fill="#ec6666"/>
            <path id="Path_75" data-name="Path 75" d="M292.84,215.6l.19-.21-.19.21" transform="translate(-182.19 -16.98)" fill="#ec6666"/>
            <path id="Path_76" data-name="Path 76" d="M315.84,176.5a70.8,70.8,0,0,0-7.16,3.64q-.19,6.36-.69,12.54a64,64,0,0,1,6.39-3.26q-.83,6.06-1.92,11.93a56,56,0,0,0-8.83,4.87,234.623,234.623,0,0,0,.79-35.58,78.141,78.141,0,0,1,12.26-6.77q-.29,6.39-.84,12.63" transform="translate(-182.19 -16.98)" fill="#ec6666"/>
            <path id="Path_77" data-name="Path 77" d="M317,150.26a88.09,88.09,0,0,0-25.93,17.58,210.832,210.832,0,0,1,4.49,39.76v5.22c-.85.83-1.68,1.69-2.5,2.57l-.19.21q-.07-5-.46-10.19a211.353,211.353,0,0,0-8.5-44.5A97.17,97.17,0,0,1,316.72,137l.26,13.22" transform="translate(-182.19 -16.98)" fill="#ec6666"/>
            <path id="Path_78" data-name="Path 78" d="M292.47,328.41l.27.29.23.23a40.811,40.811,0,0,0,3.47,2.86,51.4,51.4,0,0,0-4.19-3.39l-1.23-.84a62.411,62.411,0,0,1,12.14,10.33,49.23,49.23,0,0,1-7.54-6.1,39.691,39.691,0,0,1,3.36,4.68,57.15,57.15,0,0,0,12.69,9.46c1.13.62,2.27,1.18,3.41,1.7a86.219,86.219,0,0,0-21.6-18.83c-1.11-.67-2.24-1.31-3.38-1.93.42.19.83.36,1.25.52h0q3.57,1.9,7,4.16a100,100,0,0,1,24.88,24,58.793,58.793,0,0,1-7-3.22,67.42,67.42,0,0,1-17.09-13.45,34.85,34.85,0,0,0-6.68-10.5" transform="translate(-182.19 -16.98)" fill="#ec6666"/>
            <path id="Path_79" data-name="Path 79" d="M281,306.91c.55,1.53,1.26,3.58,1.86,5.09l1.06,2.48a78.94,78.94,0,0,0,7.9,13.66,21.167,21.167,0,0,0-1.55-2.49h0l1,1.26a26.051,26.051,0,0,1,4.32,7.79,87.769,87.769,0,0,1-14.7-27.38c.14-.17.19-.3.15-.41" transform="translate(-182.19 -16.98)" fill="#ec6666"/>
            <path id="Path_80" data-name="Path 80" d="M277.3,279.29h0l-.15,1.81a22.083,22.083,0,0,0,0-3.15,73.94,73.94,0,0,0,.62,15.3l.06.39c.45,2.51,1.12,5.84,1.71,8.32,0-.1-.14-.18-.34-.23a86.88,86.88,0,0,1-2.44-31.43,26.39,26.39,0,0,1,.56,9" transform="translate(-182.19 -16.98)" fill="#ec6666"/>
            <path id="Path_81" data-name="Path 81" d="M278.49,277.38a22,22,0,0,0-3.06,4.33c.51-1,1.21-2.35,1.67-3.39l.21-.5a57.941,57.941,0,0,0,3.35-12.25,44,44,0,0,1,4.25-8.2q.91-4.19,1.46-8.53a55,55,0,0,0-7.31,16.81c-.09.36-.18.72-.26,1.08a89.456,89.456,0,0,1-1.11,10.09l-.14.75a35.49,35.49,0,0,0,0-12.92c.3-1.64.66-3.25,1.07-4.86a61.891,61.891,0,0,1,10.26-22A104.52,104.52,0,0,1,284,263.53a35.908,35.908,0,0,0-3.89,6.57,61.914,61.914,0,0,1-2.41,6.9,28.21,28.21,0,0,1,4.75-7.27q-1.8,3.93-3.93,7.65" transform="translate(-182.19 -16.98)" fill="#ec6666"/>
            <path id="Path_82" data-name="Path 82" d="M278.49,277.38l.06-.07-.06.07" transform="translate(-182.19 -16.98)" fill="#ec6666"/>
            <path id="Path_83" data-name="Path 83" d="M295.45,254.27a26.843,26.843,0,0,0-2.78,1.41q-2.21,4.89-4.68,9.51a22.2,22.2,0,0,1,2.28-1.16q-2.59,4.5-5.43,8.74a18.112,18.112,0,0,0-2.86,1.57,136.8,136.8,0,0,0,12.78-27,32,32,0,0,1,5.12-2.82q-2.1,5-4.43,9.8" transform="translate(-182.19 -16.98)" fill="#ec6666"/>
            <path id="Path_84" data-name="Path 84" d="M304,233.64a39.08,39.08,0,0,0-11.54,7.82,118.132,118.132,0,0,1-11,31.15c-.68,1.31-1.4,2.6-2.14,3.87-.27.27-.54.54-.81.83l-.06.07q2.13-3.72,3.93-7.65A115.39,115.39,0,0,0,292,234.09c5.09-5.11,8.27-7.89,15.41-11.2L304,233.64" transform="translate(-182.19 -16.98)" fill="#ec6666"/>
            <path id="Path_85" data-name="Path 85" d="M254.51,317.74c-4,.05-9.26,0-13.22.33a107.818,107.818,0,0,1,20.09.13,4.343,4.343,0,0,1-.72,0l-6.15-.43" transform="translate(-182.19 -16.98)" fill="#ec6666"/>
            <path id="Path_86" data-name="Path 86" d="M275.33,320.91l-3.3-.85-2.73-.59a7.74,7.74,0,0,0,2.75.07q4.79.87,9.54,2.12a10.9,10.9,0,0,1-4.69-.3l-1.57-.45" transform="translate(-182.19 -16.98)" fill="#ec6666"/>
            <path id="Path_87" data-name="Path 87" d="M249.58,308.34a2.2,2.2,0,0,0-.31.15q-4.12,2.73-8.54,5.09l.14-.07q-4.25,2.26-8.72,4.18h0c4.65-2.25,10.8-5.37,15.25-8l9.25-6.57a4.688,4.688,0,0,1,.79-.44q-3.79,3-7.82,5.62" transform="translate(-182.19 -16.98)" fill="#ec6666"/>
            <path id="Path_88" data-name="Path 88" d="M265.13,296.1a8,8,0,0,0-2.3,1.55l3.59-3.67.15-.17c.59-.65,1.17-1.3,1.74-2a10.891,10.891,0,0,1,3.7-2.68l-6.88,6.94" transform="translate(-182.19 -16.98)" fill="#ec6666"/>
          </g>
        </g>
        <g id="Group_9" data-name="Group 9">
          <g id="Group_8" data-name="Group 8" clip-path="url(#clip-path-4)">
            <path id="Path_90" data-name="Path 90" d="M290.32,326.31c.85.91,1.73,1.79,2.65,2.62l-.23-.23-.27-.29c-.68-.73-1.4-1.43-2.15-2.1" transform="translate(-182.19 -16.98)" fill="#ec6666"/>
            <path id="Path_91" data-name="Path 91" d="M280,318.8a29.389,29.389,0,0,0,6.71,6.18q2.24,1.22,4.35,2.58l1.23.84-1.17-.84a36.742,36.742,0,0,1-6.86-6.63A32.548,32.548,0,0,0,280,318.8" transform="translate(-182.19 -16.98)" fill="#ec6666"/>
            <path id="Path_92" data-name="Path 92" d="M281.15,318.49q-1-.47-2.1-.87c.29.4.59.79.9,1.18h0a32.549,32.549,0,0,1,4.26,2.13,26.16,26.16,0,0,1,7,6l-1-1.26h0a22.65,22.65,0,0,0-9.09-7.16" transform="translate(-182.19 -16.98)" fill="#ec6666"/>
            <path id="Path_93" data-name="Path 93" d="M273.22,305.24a37.722,37.722,0,0,0,3.59,8.9c3.92.85,6.82,2.31,8.7,4.35a66.123,66.123,0,0,1-4.31-9.26,1.55,1.55,0,0,1,.81.67c.56,1.38,1.28,3.23,1.88,4.58L282.83,312c-.56-1.52-1.35-3.54-1.86-5.09-.11-.26-.78-.33-2-.22a57.582,57.582,0,0,0,3.32,8,13.621,13.621,0,0,0-2.8-1.14,46.56,46.56,0,0,1-3.56-9.36c-.77.32-1.66.68-2.68,1.07" transform="translate(-182.19 -16.98)" fill="#ec6666"/>
            <path id="Path_94" data-name="Path 94" d="M273.22,305.24h0" transform="translate(-182.19 -16.98)" fill="#ec6666"/>
            <path id="Path_95" data-name="Path 95" d="M278.77,298.92c.1,1-1.39,2.39-4.51,4.1-.44.24-.9.48-1.4.73.11.49.23,1,.35,1.46h0c1-.39,1.91-.75,2.68-1.07,2.51-1.06,3.71-1.78,3.62-2.17-.58-2.48-1.28-5.81-1.71-8.32l-.06-.39q.4,2.83,1,5.63" transform="translate(-182.19 -16.98)" fill="#ec6666"/>
            <path id="Path_96" data-name="Path 96" d="M272.56,290a34,34,0,0,0-.37,9.61q4.32-3.74,5.06-7.16a64.214,64.214,0,0,1-.2-10.28c0-.33.07-.66.1-1l.15-1.81h0a25.489,25.489,0,0,1-.89,4.44,52.11,52.11,0,0,0-.22,8.66,15.591,15.591,0,0,1-1.7,2.88,41.229,41.229,0,0,1,.6-10,39.517,39.517,0,0,1-2.53,4.68" transform="translate(-182.19 -16.98)" fill="#ec6666"/>
            <path id="Path_97" data-name="Path 97" d="M272.56,290v0" transform="translate(-182.19 -16.98)" fill="#ec6666"/>
            <path id="Path_98" data-name="Path 98" d="M274.27,286c-.43.84-.9,1.67-1.39,2.49q-.17.69-.3,1.38v.11a39.517,39.517,0,0,0,2.53-4.68,35.1,35.1,0,0,0,2.46-7.71l.14-.75a83.851,83.851,0,0,1-3.42,9.16" transform="translate(-182.19 -16.98)" fill="#ec6666"/>
            <path id="Path_99" data-name="Path 99" d="M274.1,284.56a57.678,57.678,0,0,0,3.21-6.74l-.21.5c-.49,1-1.14,2.39-1.67,3.39a24.837,24.837,0,0,0-1.33,2.85" transform="translate(-182.19 -16.98)" fill="#ec6666"/>
            <path id="Path_100" data-name="Path 100" d="M232.38,319.15a.51.51,0,0,0,.2,0c2.91-.49,5.82-.87,8.71-1.12,4-.15,9.26-.43,13.22-.33l6.15.43a3.748,3.748,0,0,1-.57-.09,92.03,92.03,0,0,1,9.11,1.37h.1l2.73.59,3.3.85a92.108,92.108,0,0,0-24.33-3.3,3.513,3.513,0,0,0,.78.12q-4.89-.06-9.83.34a1.669,1.669,0,0,1-.52-.11c-3,.28-6,.7-9.07,1.25" transform="translate(-182.19 -16.98)" fill="#ec6666"/>
            <path id="Path_101" data-name="Path 101" d="M232,318.93l.16.17a101.841,101.841,0,0,1,25.71-1.94,8.6,8.6,0,0,1-1.17-.94,73.436,73.436,0,0,1,7.39.39,11.57,11.57,0,0,0,2.54,1.89c.22.12.45.24.68.34a93.209,93.209,0,0,0-30.51-.44c-1.5.22-3,.47-4.54.75h.09c3.06-.55,6.09-1,9.07-1.25A90,90,0,0,1,275.8,321a13.135,13.135,0,0,1-1.67-.77A16.341,16.341,0,0,1,270,317a79,79,0,0,0-21-.7,4.871,4.871,0,0,0,.68.61q-4.26.18-8.76.73a4.364,4.364,0,0,1-.43-.43q-4.09.72-8.47,1.72" transform="translate(-182.19 -16.98)" fill="#ec6666"/>
            <path id="Path_102" data-name="Path 102" d="M231.83,318.56a1.329,1.329,0,0,0,.1.24,205.084,205.084,0,0,1,23.24-4.64,9.8,9.8,0,0,1-.66-1.43q3.32-.8,6.23-1.42a15.331,15.331,0,0,0,1.95,3.64,120.433,120.433,0,0,0-26.42,3c-1.4.3-2.83.62-4.28,1h0q4.38-1,8.47-1.72c11.18-2,20.74-2.33,28.65-1.22a21.41,21.41,0,0,1-3.53-6.58q-7.22,1.79-17.87,4.72a7,7,0,0,0,.37.89q-3.78.74-8,1.71a2.64,2.64,0,0,1-.23-.61c-2.58.78-5.28,1.6-8.11,2.44" transform="translate(-182.19 -16.98)" fill="#ec6666"/>
            <path id="Path_103" data-name="Path 103" d="M49.65,301.59h0" fill="#ec6666"/>
            <path id="Path_104" data-name="Path 104" d="M231.82,318.15a.76.76,0,0,0,0,.26q12.88-4.21,22.09-8.28a8.449,8.449,0,0,1,0-1.59q3.16-1.77,5.9-3.6a15.05,15.05,0,0,0,.32,4.18q-9.57,3.57-24.13,8.12l-4.14,1.28h0c2.83-.84,5.53-1.66,8.11-2.44q15.84-4.83,25.29-8a20.85,20.85,0,0,1-.58-7.54,82.11,82.11,0,0,1-17.18,11,6.158,6.158,0,0,0,0,1q-3.585,1.5-7.6,3a2.35,2.35,0,0,1,0-.65c-2.56,1.13-5.25,2.21-8.07,3.26" transform="translate(-182.19 -16.98)" fill="#ec6666"/>
            <path id="Path_105" data-name="Path 105" d="M49.63,301.18v0" fill="#ec6666"/>
            <path id="Path_106" data-name="Path 106" d="M232,317.81a.669.669,0,0,0-.12.2,104,104,0,0,0,22.57-12,6.893,6.893,0,0,1,.65-1.27,84.36,84.36,0,0,0,6.53-5.58,11.109,11.109,0,0,0-1.46,3.35,1.423,1.423,0,0,1,0,.22A98.52,98.52,0,0,1,236,316.48l-4.14,1.63h0c2.82-1,5.51-2.13,8.07-3.26,10.5-4.63,18.81-9.91,25-15.72.07-.39.16-.77.26-1.16a14.68,14.68,0,0,1,2.46-5.27,88,88,0,0,1-19.26,16.62,4,4,0,0,0-.43.73q-3.7,2.24-7.83,4.26a2,2,0,0,1,.31-.47q-4,2.12-8.38,3.93" transform="translate(-182.19 -16.98)" fill="#ec6666"/>
            <path id="Path_107" data-name="Path 107" d="M49.79,300.84h0" fill="#ec6666"/>
            <path id="Path_108" data-name="Path 108" d="M262.83,297.66a98.859,98.859,0,0,1-26.54,18.21c-1.4.67-2.84,1.31-4.29,1.92h0q4.35-1.81,8.38-3.93a94.56,94.56,0,0,0,26.21-20.07l-.15.17-3.59,3.67h0" transform="translate(-182.19 -16.98)" fill="#ec6666"/>
            <path id="Path_109" data-name="Path 109" d="M232.07,317.73c4.62-2.33,10.87-5.31,15.29-8-4.5,2.54-10.56,5.81-15.25,8h0" transform="translate(-182.19 -16.98)" fill="#ec6666"/>
          </g>
        </g>
      </g>
    </g>
  </g>
</svg>
